# xmcd
#
# Track frame offsets: 
#        150
#        10924
#        36068
#        49593
#        62234
#        86661
#        98939
#        108403
#        127445
#        148709
#        157839
#        182781
#
# Disc length: 2636 seconds
#
# Revision: 3
# Processed by: cddbd v1.5.2PL0 Copyright (c) Steve Scherf et al.
# Submitted via: ExactAudioCopy v1.0b4
#
DISCID=a40a4a0c
DTITLE=Eddie Boyd with Peter Green - 7936 South Rhodes
DYEAR=1968
DGENRE=Blues Rock
TTITLE0=You Got To Reap
TTITLE1=Just The Blues
TTITLE2=She Is Real
TTITLE3=Backslap
TTITLE4=Be Careful
TTITLE5=Ten To one
TTITLE6=The Blues Is Here To Stay
TTITLE7=You Are My Love
TTITLE8=Third Degree
TTITLE9=Thank You Baby
TTITLE10=She's Gone
TTITLE11=I'll Never Stop (I Can't Stop Loving You)
EXTD=
EXTT0=
EXTT1=
EXTT2=
EXTT3=
EXTT4=
EXTT5=
EXTT6=
EXTT7=
EXTT8=
EXTT9=
EXTT10=
EXTT11=
PLAYORDER=
